<svg width="222" height="222" viewBox="0 0 222 222" fill="none" xmlns="http://www.w3.org/2000/svg">
<path d="M175.443 102.057H46.5577C36.3889 102.057 28.1455 110.301 28.1455 120.47V184.912C28.1455 195.081 36.3889 203.324 46.5577 203.324H175.443C185.612 203.324 193.855 195.081 193.855 184.912V120.47C193.855 110.301 185.612 102.057 175.443 102.057Z" stroke="black" stroke-width="14.7297" stroke-linecap="round" stroke-linejoin="round"/>
<path d="M64.9697 102.057V65.2331C64.9697 53.0251 69.8193 41.3171 78.4517 32.6847C87.0841 24.0523 98.7921 19.2027 111 19.2027C123.208 19.2027 134.916 24.0523 143.549 32.6847C152.181 41.3171 157.031 53.0251 157.031 65.2331V102.057" stroke="black" stroke-width="14.7297" stroke-linecap="round" stroke-linejoin="round"/>
</svg>
